<svg width="20" height="20" viewBox="0 0 20 20" fill="none" xmlns="http://www.w3.org/2000/svg">
<path d="M3.99999 1H6.24999C7.90684 1 9.24998 2.34315 9.24998 3.99999V6.24999C9.24998 7.90684 7.90684 9.24998 6.24999 9.24998H3.99999C2.34315 9.25002 1 7.90687 1 6.24999V3.99999C1 2.34315 2.34315 1 3.99999 1Z" fill="white"/>
<path d="M13.75 1H16C17.6568 1 19 2.34315 19 3.99999V6.24999C19 7.90684 17.6568 9.24998 16 9.24998H13.75C12.0931 9.24998 10.75 7.90684 10.75 6.24999V3.99999C10.75 2.34315 12.0931 1 13.75 1Z" fill="white"/>
<path d="M3.99999 10.75H6.24999C7.90684 10.75 9.24998 12.0931 9.24998 13.75V16C9.24998 17.6568 7.90684 19 6.24999 19H3.99999C2.34315 19 1 17.6569 1 16V13.75C1 12.0931 2.34315 10.75 3.99999 10.75Z" fill="white"/>
<path d="M13.75 10.75H16C17.6568 10.75 19 12.0931 19 13.75V16C19 17.6569 17.6568 19 16 19H13.75C12.0931 19 10.75 17.6569 10.75 16V13.75C10.75 12.0931 12.0931 10.75 13.75 10.75Z" fill="white"/>
</svg>
