<svg width="20" height="21" viewBox="0 0 20 21" fill="none" xmlns="http://www.w3.org/2000/svg">
<path d="M19.9617 5.11816L12.9467 12.1332C12.1645 12.9134 11.1048 13.3515 10 13.3515C8.89521 13.3515 7.83552 12.9134 7.05333 12.1332L0.0383333 5.11816C0.0266667 5.24983 0 5.369 0 5.49983V15.4998C0.00132321 16.6045 0.440735 17.6635 1.22185 18.4446C2.00296 19.2258 3.062 19.6652 4.16667 19.6665H15.8333C16.938 19.6652 17.997 19.2258 18.7782 18.4446C19.5593 17.6635 19.9987 16.6045 20 15.4998V5.49983C20 5.369 19.9733 5.24983 19.9617 5.11816Z" fill="#34495C"/>
<path d="M11.7685 10.9552L19.3801 3.34266C19.0114 2.73126 18.4913 2.22519 17.8701 1.87327C17.2489 1.52135 16.5474 1.33545 15.8335 1.3335H4.16678C3.4528 1.33545 2.75137 1.52135 2.13014 1.87327C1.50891 2.22519 0.988849 2.73126 0.620117 3.34266L8.23178 10.9552C8.70143 11.4229 9.33727 11.6856 10.0001 11.6856C10.663 11.6856 11.2988 11.4229 11.7685 10.9552Z" fill="#34495C"/>
</svg>
