<svg width="18" height="21" viewBox="0 0 18 21" fill="none" xmlns="http://www.w3.org/2000/svg">
<path d="M9.00012 0.535156C6.79507 0.537582 4.68101 1.41455 3.12173 2.97368C1.56245 4.53281 0.685264 6.64678 0.682617 8.85182C0.682617 10.9935 2.34095 14.3452 5.61178 18.8135C6.00117 19.3469 6.511 19.7809 7.09979 20.0801C7.68857 20.3793 8.33968 20.5352 9.00012 20.5352C9.66055 20.5352 10.3117 20.3793 10.9004 20.0801C11.4892 19.7809 11.9991 19.3469 12.3885 18.8135C15.6593 14.3452 17.3176 10.9935 17.3176 8.85182C17.315 6.64678 16.4378 4.53281 14.8785 2.97368C13.3192 1.41455 11.2052 0.537582 9.00012 0.535156ZM9.00012 12.1668C8.34085 12.1668 7.69638 11.9713 7.14822 11.6051C6.60005 11.2388 6.17281 10.7182 5.92052 10.1091C5.66823 9.50002 5.60222 8.82979 5.73083 8.18319C5.85945 7.53659 6.17692 6.94264 6.64309 6.47647C7.10927 6.01029 7.70321 5.69282 8.34982 5.56421C8.99642 5.43559 9.66664 5.5016 10.2757 5.75389C10.8848 6.00618 11.4054 6.43343 11.7717 6.98159C12.138 7.52975 12.3335 8.17422 12.3335 8.83349C12.3335 9.71755 11.9823 10.5654 11.3571 11.1905C10.732 11.8156 9.88417 12.1668 9.00012 12.1668Z" fill="#34495C"/>
</svg>
