<svg width="24" height="23" viewBox="0 0 24 23" fill="none" xmlns="http://www.w3.org/2000/svg">
<path d="M17.5009 0.916992C16.3749 0.934507 15.2734 1.24885 14.3077 1.82826C13.342 2.40768 12.5463 3.23166 12.0009 4.21699C11.4556 3.23166 10.6599 2.40768 9.69417 1.82826C8.72848 1.24885 7.62698 0.934507 6.50094 0.916992C4.70588 0.994983 3.01464 1.78025 1.79672 3.10122C0.578794 4.4222 -0.0668157 6.17152 0.000934853 7.96699C0.000934853 12.514 4.78693 17.48 8.80093 20.847C9.69715 21.6001 10.8303 22.013 12.0009 22.013C13.1716 22.013 14.3047 21.6001 15.2009 20.847C19.2149 17.48 24.0009 12.514 24.0009 7.96699C24.0687 6.17152 23.4231 4.4222 22.2052 3.10122C20.9872 1.78025 19.296 0.994983 17.5009 0.916992Z" fill="#34495C"/>
</svg>
