<svg width="64" height="64" viewBox="0 0 64 64" fill="none" xmlns="http://www.w3.org/2000/svg">
<path d="M42.6639 13.3327C42.3138 13.3327 41.9672 13.4017 41.6438 13.5357C41.3204 13.6698 41.0266 13.8662 40.7792 14.1139C40.5318 14.3616 40.3356 14.6555 40.2019 14.9791C40.0682 15.3026 39.9995 15.6493 39.9999 15.9994C39.9999 17.4767 41.1919 18.666 42.6639 18.666C46.1993 18.6695 49.5889 20.0754 52.089 22.575C54.5892 25.0746 55.9956 28.464 55.9999 31.9994V53.3327C55.9999 54.3514 55.4559 55.226 54.5492 55.69C54.1121 55.9201 53.619 56.0221 53.1265 55.9844C52.634 55.9467 52.1621 55.7707 51.7652 55.4767L50.3305 54.4367C45.2959 50.794 39.5465 47.9914 33.3332 47.9914H30.6665C24.4532 47.9914 18.6985 50.7914 13.6639 54.4394L12.2292 55.4767C11.8328 55.7719 11.3609 55.9486 10.8681 55.9863C10.3753 56.0241 9.88195 55.9214 9.44521 55.69C9.00616 55.4733 8.63713 55.1372 8.38053 54.7202C8.12392 54.3032 7.99013 53.8223 7.99455 53.3327V31.8794C7.99455 25.4367 12.5865 19.906 18.6692 18.666C18.8132 22.9594 22.3439 26.666 26.6639 26.666H31.9945C32.7018 26.666 33.3801 26.3851 33.8802 25.885C34.3803 25.3849 34.6612 24.7066 34.6612 23.9994V5.33802C34.6619 4.9876 34.5935 4.64048 34.46 4.3165C34.3265 3.99253 34.1304 3.69805 33.883 3.44989C33.6356 3.20174 33.3417 3.00478 33.0181 2.87028C32.6945 2.73578 32.3476 2.66637 31.9972 2.66602C31.6468 2.66637 31.2999 2.73578 30.9763 2.87028C30.6527 3.00478 30.3588 3.20174 30.1114 3.44989C29.864 3.69805 29.6679 3.99253 29.5344 4.3165C29.4009 4.64048 29.3325 4.9876 29.3332 5.33802V21.3327H26.6639C25.9566 21.332 25.2785 21.0509 24.7781 20.551C24.2777 20.0512 23.996 19.3733 23.9945 18.666V15.9994C23.9949 15.6493 23.9262 15.3026 23.7925 14.9791C23.6588 14.6555 23.4626 14.3616 23.2152 14.1139C22.9678 13.8662 22.674 13.6698 22.3506 13.5357C22.0272 13.4017 21.6806 13.3327 21.3305 13.3327C11.0399 13.3327 2.66655 21.578 2.66655 31.8794V53.3327C2.6617 54.8057 3.06635 56.251 3.83531 57.5073C4.60428 58.7637 5.70729 59.7816 7.02121 60.4474C8.33279 61.1212 9.80552 61.4181 11.2757 61.3051C12.7459 61.1921 14.156 60.6737 15.3492 59.8074L16.7812 58.7674C20.9039 55.786 25.5812 53.3327 30.6665 53.3327H33.3332C38.4185 53.3327 43.0905 55.786 47.2132 58.77L48.6425 59.8074C49.835 60.6765 51.2458 61.1966 52.717 61.3096C54.1883 61.4227 55.662 61.1241 56.9732 60.4474C58.2871 59.7816 59.3901 58.7637 60.1591 57.5073C60.9281 56.251 61.3327 54.8057 61.3279 53.3327V31.9994C61.3279 21.698 52.9545 13.3327 42.6639 13.3327Z" fill="#34495C"/>
<path d="M15.9999 34.6668C15.6495 34.6672 15.3026 34.7366 14.979 34.8711C14.6555 35.0056 14.3616 35.2026 14.1142 35.4507C13.8668 35.6989 13.6707 35.9933 13.5371 36.3173C13.4036 36.6413 13.3352 36.9884 13.3359 37.3388C13.3352 37.6892 13.4036 38.0364 13.5371 38.3603C13.6707 38.6843 13.8668 38.9788 14.1142 39.227C14.3616 39.4751 14.6555 39.6721 14.979 39.8066C15.3026 39.9411 15.6495 40.0105 15.9999 40.0108H21.3333C22.0419 40.0108 22.7216 39.7293 23.2227 39.2282C23.7238 38.7271 24.0053 38.0475 24.0053 37.3388C24.0053 36.6302 23.7238 35.9505 23.2227 35.4494C22.7216 34.9483 22.0419 34.6668 21.3333 34.6668H15.9999ZM42.6666 29.3335C43.3739 29.3335 44.0521 29.6144 44.5522 30.1145C45.0523 30.6146 45.3333 31.2929 45.3333 32.0002V34.6668H47.9999C48.7072 34.6668 49.3855 34.9478 49.8856 35.4479C50.3857 35.948 50.6666 36.6263 50.6666 37.3335C50.6666 38.0407 50.3857 38.719 49.8856 39.2191C49.3855 39.7192 48.7072 40.0002 47.9999 40.0002H45.3333V42.6668C45.3333 43.3741 45.0523 44.0524 44.5522 44.5525C44.0521 45.0525 43.3739 45.3335 42.6666 45.3335C41.9594 45.3335 41.2811 45.0525 40.781 44.5525C40.2809 44.0524 39.9999 43.3741 39.9999 42.6668V40.0002H37.3333C36.626 40.0002 35.9478 39.7192 35.4477 39.2191C34.9476 38.719 34.6666 38.0407 34.6666 37.3335C34.6666 36.6263 34.9476 35.948 35.4477 35.4479C35.9478 34.9478 36.626 34.6668 37.3333 34.6668H39.9999V32.0002C39.9999 31.2929 40.2809 30.6146 40.781 30.1145C41.2811 29.6144 41.9594 29.3335 42.6666 29.3335Z" fill="#00B6BA"/>
<path opacity="0.3" d="M15.0725 51.6914L12.2447 53.7405C11.4089 54.3461 10.2317 53.8134 10.1348 52.786L9.87786 50.0586L9.87792 39.6801L14.9572 44.5808L23.0403 47.3597L15.0725 51.6914Z" fill="#00B6BA"/>
</svg>
