<svg width="64" height="64" viewBox="0 0 64 64" fill="none" xmlns="http://www.w3.org/2000/svg">
<g clip-path="url(#clip0_4858_3092)">
<path d="M26.314 17.25H16.814L6.18896 30.875L13.939 38.625L18.189 33V46.875" stroke="#00B6BA" stroke-width="4" stroke-miterlimit="10"/>
<path d="M41.314 17.25L33.814 14.625L26.314 17.25" stroke="#00B6BA" stroke-width="4" stroke-miterlimit="10"/>
<path d="M27.564 62.125H49.439V33L53.689 38.625L61.439 30.875L50.814 17.25H41.314" stroke="#00B6BA" stroke-width="4" stroke-miterlimit="10"/>
<path d="M26.314 17.25L33.814 28.875L41.314 17.25" stroke="#00B6BA" stroke-width="4" stroke-miterlimit="10"/>
<path d="M33.814 14.625V9.875C36.0231 9.875 37.814 8.08413 37.814 5.875C37.814 3.66588 36.0231 1.875 33.814 1.875C31.6048 1.875 29.814 3.66588 29.814 5.875" stroke="#00B6BA" stroke-width="4" stroke-miterlimit="10"/>
<path d="M30.439 62.125H5.68896C3.61784 62.125 1.93896 60.4461 1.93896 58.375C1.93896 56.3039 3.61784 54.625 5.68896 54.625H30.439C32.5101 54.625 34.189 56.3039 34.189 58.375C34.189 60.4461 32.5101 62.125 30.439 62.125Z" stroke="#00B6BA" stroke-width="4" stroke-miterlimit="10"/>
<path d="M30.439 54.625H5.68896C3.61784 54.625 1.93896 52.9461 1.93896 50.875C1.93896 48.8039 3.61784 47.125 5.68896 47.125H30.439C32.5101 47.125 34.189 48.8039 34.189 50.875C34.189 52.9461 32.5101 54.625 30.439 54.625Z" stroke="#00B6BA" stroke-width="4" stroke-miterlimit="10"/>
<path d="M30.439 54.625H5.68896C3.61784 54.625 1.93896 52.9461 1.93896 50.875C1.93896 48.8039 3.61784 47.125 5.68896 47.125H30.439C32.5101 47.125 34.189 48.8039 34.189 50.875C34.189 52.9461 32.5101 54.625 30.439 54.625Z" stroke="#00B6BA" stroke-width="4" stroke-miterlimit="10"/>
<path opacity="0.3" d="M38.3999 32.64L46.0799 20.48V58.88H38.3999V32.64Z" fill="#00B6BA"/>
</g>
<defs>
<clipPath id="clip0_4858_3092">
<rect width="64" height="64" fill="white"/>
</clipPath>
</defs>
</svg>
