<svg width="54" height="60" viewBox="0 0 54 60" fill="none" xmlns="http://www.w3.org/2000/svg">
<path fill-rule="evenodd" clip-rule="evenodd" d="M27.8799 0.591553C27.259 0.248128 26.5007 0.248128 25.8798 0.591553L1.15327 14.3285C0.499388 14.6939 0.0927734 15.3835 0.0927734 16.1308C0.0927734 16.8781 0.499388 17.5677 1.15327 17.9331L25.8798 31.6701C26.5007 32.0135 27.259 32.0135 27.8799 31.6701L52.6065 17.9331C53.2604 17.5677 53.667 16.8781 53.667 16.1308C53.667 15.3835 53.2604 14.6939 52.6065 14.3285L27.8799 0.591553ZM26.8799 4.75111L47.3645 16.1308L26.8799 27.5105L6.3953 16.1308L26.8799 4.75111Z" fill="#00B6BA"/>
<path fill-rule="evenodd" clip-rule="evenodd" d="M25.8808 28.0653C25.2269 28.4307 24.8203 29.1203 24.8203 29.8675V57.3415C24.8203 58.0723 25.2077 58.7482 25.8368 59.1163C26.466 59.4872 27.2435 59.4982 27.8809 59.1438L51.2008 46.1898C52.7229 45.3381 53.668 43.7337 53.668 41.9891V16.1306C53.668 15.3998 53.2806 14.7239 52.6514 14.3557C52.0223 13.9848 51.2448 13.9739 50.6074 14.3283L25.8808 28.0653ZM28.9414 31.0791L49.5469 19.6335V41.9891C49.5469 42.2391 49.4095 42.4699 49.1897 42.5907L28.9414 53.8386V31.0791Z" fill="#00B6BA"/>
<path fill-rule="evenodd" clip-rule="evenodd" d="M28.9404 29.8675C28.9404 29.1203 28.5338 28.4307 27.8799 28.0653L3.15337 14.3283C2.51598 13.9739 1.73846 13.9848 1.10931 14.3557C0.480156 14.7239 0.0927734 15.3998 0.0927734 16.1306V41.9891C0.0927734 43.7337 1.03788 45.3381 2.55994 46.1898L25.8798 59.1438C26.5172 59.4982 27.2947 59.4872 27.9239 59.1163C28.5531 58.7482 28.9404 58.0723 28.9404 57.3415V29.8675ZM24.8193 31.0791V53.8386L4.57103 42.5907C4.35124 42.4699 4.21387 42.2391 4.21387 41.9891V19.6335L24.8193 31.0791Z" fill="#00B6BA"/>
<path fill-rule="evenodd" clip-rule="evenodd" d="M37.7486 7.22927L13.4864 21.2135C12.5028 21.7822 12.1649 23.0433 12.7308 24.0296C13.2995 25.0132 14.5606 25.3511 15.5469 24.7851L39.8064 10.8009C40.79 10.2322 41.1307 8.97112 40.562 7.98755C39.9932 7.00124 38.7322 6.66331 37.7486 7.22927Z" fill="#00B6BA"/>
</svg>
