<svg width="64" height="64" viewBox="0 0 64 64" fill="none" xmlns="http://www.w3.org/2000/svg">
<path d="M34.1534 38.1423C34.1536 38.142 34.1539 38.1419 34.1541 38.1417C34.1542 38.1415 34.1545 38.1413 34.1546 38.141L55.4517 16.8441L58.114 19.5063L44.8029 32.8172L47.4651 35.4794L63.4382 19.5063L58.1138 14.1819L59.4449 12.8509C62.3807 9.91491 62.3807 5.13787 59.4447 2.202C56.509 -0.734 51.7318 -0.734 48.7961 2.202C48.391 2.6071 8.01638 42.9816 7.53209 43.466L5.8867 45.1114L0.5625 61.0844L16.5357 55.76C16.5498 55.746 33.8676 38.428 34.1534 38.1423ZM27.4986 34.1482C26.7036 33.3532 26.1463 32.3904 25.9695 31.5066C25.8491 30.9046 25.923 30.3994 26.1675 30.1549C26.3348 29.9876 26.6242 29.9003 26.9831 29.9003C28.8303 29.9003 31.2634 31.9947 31.6899 34.1275C31.8103 34.7295 31.7362 35.2347 31.4919 35.4792L31.4914 35.4798C30.9482 36.0219 29.1233 35.773 27.4986 34.1482ZM51.4584 4.86416C52.9263 3.39635 55.3149 3.39635 56.7828 4.86429C58.2506 6.33223 58.2506 8.72068 56.7828 10.1887L55.4517 11.5198L50.1272 6.19531L51.4584 4.86416ZM52.7895 14.1819L34.9632 32.0083C34.0197 29.6728 31.9759 27.628 29.6387 26.6838L47.4651 8.85748L52.7895 14.1819ZM22.6964 33.6262C23.6406 35.9634 25.6949 38.0157 28.0178 38.9535L18.181 48.7903C16.2925 46.9017 14.8758 45.485 12.8567 43.4659L22.6964 33.6262ZM14.5019 52.4695L6.51544 55.1317L9.17761 47.1451L10.1945 46.1282L15.5188 51.4526L14.5019 52.4695Z" fill="#00B6BA"/>
<path d="M46.4597 50.8222C46.4597 53.9361 48.993 56.4695 52.107 56.4695H53.9895C55.0276 56.4695 55.8719 57.3139 55.8719 58.352C55.8719 59.39 55.0276 60.2344 53.9895 60.2344H21.9878V63.9993H53.9895C57.1036 63.9993 59.6368 61.4659 59.6368 58.352C59.6368 55.2379 57.1036 52.7046 53.9895 52.7046H52.107C51.069 52.7046 50.2246 51.8601 50.2246 50.8222C50.2246 49.7841 51.069 48.9397 52.107 48.9397H63.4017V45.1748H52.107C48.993 45.1748 46.4597 47.7081 46.4597 50.8222Z" fill="#34495C"/>
</svg>
