<svg width="64" height="64" viewBox="0 0 64 64" fill="none" xmlns="http://www.w3.org/2000/svg">
<g clip-path="url(#clip0_4858_8253)">
<path d="M56.4027 49.1535L47.5462 37.6491H50.1373C50.1391 37.6491 50.1414 37.6491 50.1431 37.6491C51.3496 37.6491 52.3271 36.6713 52.3271 35.4651C52.3271 34.9124 52.1221 34.4078 51.7835 34.0228L43.4656 23.2173H46.5101C46.5128 23.2173 46.5145 23.2173 46.516 23.2173C47.7224 23.2173 48.7 22.2395 48.7 21.0333C48.7 20.4806 48.4949 19.976 48.1563 19.591L33.7303 0.851757C33.3168 0.314786 32.6773 0 31.9997 0C31.3221 0 30.6826 0.314786 30.2691 0.851757L15.7587 19.7011C15.2511 20.3606 15.1623 21.2511 15.5298 21.998C15.8976 22.7444 16.6573 23.2176 17.4892 23.2176H20.5337L12.1312 34.1332C11.6236 34.7925 11.5348 35.6832 11.9023 36.4299C12.2701 37.1765 13.0298 37.6494 13.8618 37.6494H16.4529L7.59693 49.1538C7.08937 49.8131 7.00055 50.7039 7.36804 51.4505C7.73583 52.1971 8.49557 52.67 9.32752 52.67H24.1501V61.8163C24.1501 63.0225 25.1277 64.0003 26.3341 64.0003H37.6647C38.8711 64.0003 39.8487 63.0225 39.8487 61.8163V52.67H54.6719C55.5038 52.67 56.2638 52.1971 56.6316 51.4505C56.9991 50.7036 56.9106 49.8128 56.4027 49.1535ZM35.481 59.632H28.5184V52.6697H35.481V59.632ZM37.665 48.3018H26.3344H13.7651L22.621 36.7974C23.1286 36.1381 23.2174 35.2473 22.8499 34.5007C22.4821 33.754 21.7224 33.2811 20.8905 33.2811H18.2994L26.7019 22.3655C27.2095 21.7063 27.2983 20.8155 26.9308 20.0689C26.563 19.3222 25.8033 18.8493 24.9713 18.8493H21.9265L31.9997 5.76399L42.0728 18.8493H39.0284C38.1964 18.8493 37.4364 19.3222 37.0689 20.0689C36.7014 20.8155 36.7902 21.7063 37.2978 22.3655L45.7006 33.2811H43.1092C42.2773 33.2811 41.5172 33.754 41.1497 34.5007C40.7822 35.2473 40.8711 36.1381 41.3786 36.7974L50.2351 48.3018H37.665Z" fill="#00B6BA"/>
<path d="M34.5017 15.2755C34.5017 13.894 33.3791 12.77 31.9991 12.77C30.6194 12.77 29.4966 13.8938 29.4966 15.2755C29.4966 16.6505 30.6192 17.769 31.9991 17.769C33.3791 17.769 34.5017 16.6505 34.5017 15.2755Z" fill="#00B6BA"/>
<path d="M28.2145 29.3687C26.8348 29.3687 25.7119 30.4924 25.7119 31.8741C25.7119 33.2492 26.8345 34.3677 28.2145 34.3677C29.5942 34.3677 30.717 33.2492 30.717 31.8741C30.7168 30.4924 29.5942 29.3687 28.2145 29.3687Z" fill="#00B6BA"/>
<path d="M38.2874 27.797C38.2874 26.4155 37.1648 25.2915 35.7848 25.2915C34.4051 25.2915 33.2822 26.4152 33.2822 27.797C33.2822 29.172 34.4048 30.2905 35.7848 30.2905C37.1648 30.2905 38.2874 29.172 38.2874 27.797Z" fill="#00B6BA"/>
<path d="M26.1323 40.4336C25.4637 40.4336 24.8345 40.6945 24.3607 41.1683C23.3884 42.1406 23.3913 43.7253 24.3668 44.7011C24.842 45.1761 25.4713 45.4373 26.1393 45.4373C26.8036 45.4373 27.4288 45.1781 27.8993 44.7075C28.3731 44.234 28.6343 43.605 28.6349 42.9373C28.6355 42.2687 28.3746 41.6397 27.9008 41.166C27.4288 40.6936 26.8006 40.4336 26.1323 40.4336Z" fill="#00B6BA"/>
<path d="M38.1542 38.9771C37.4853 38.9771 36.856 39.238 36.3823 39.7117C35.9079 40.1861 35.6487 40.8166 35.6534 41.4875C35.6575 42.1502 35.9187 42.7743 36.389 43.2446C36.8633 43.7192 37.4926 43.9807 38.1609 43.9807C38.8251 43.9807 39.4503 43.7216 39.9209 43.251C40.3947 42.7781 40.6562 42.1491 40.6568 41.4808C40.6573 40.8128 40.3967 40.1838 39.9235 39.71C39.4512 39.2371 38.8225 38.9771 38.1542 38.9771Z" fill="#00B6BA"/>
<path opacity="0.3" d="M42.8799 40.3197C43.6077 40.9114 44.262 41.5881 44.8289 42.3354L46.9848 45.1774C47.6567 46.0631 47.0133 47.3338 45.9017 47.3164L41.8672 47.2532L38.3999 47.3596L41.5999 44.1597L42.8799 40.3197Z" fill="#00B6BA"/>
</g>
<defs>
<clipPath id="clip0_4858_8253">
<rect width="64" height="64" fill="white"/>
</clipPath>
</defs>
</svg>
