<svg width="182" height="28" viewBox="0 0 182 28" fill="none" xmlns="http://www.w3.org/2000/svg">
<path d="M13.777 19.1703L0 7.31989V0.116699L13.777 11.8509L27.5541 0.116699V28H21.8741V12.0833L13.777 19.1703ZM5.68001 16.0334V28H0V11.27L5.68001 16.0334Z" fill="#EC1026"/>
<path d="M41.0924 27.9995H34.8081L44.8388 9.17827L47.9809 15.2197L41.0924 27.9995ZM55.5945 23.3523H46.8932L49.7937 17.8918H52.8149L46.4098 6.04139L49.6728 0L64.5375 27.8833H58.2533L55.5945 23.3523Z" fill="#EC1026"/>
<path d="M76.8656 0.696777V27.9992H71.1855V0.696777H76.8656ZM79.8868 27.9992V22.5387H87.7422V27.9992H79.8868Z" fill="#EC1026"/>
<path d="M100.423 0.696777V27.9992H94.7432V0.696777H100.423ZM106.224 27.9992H103.565V22.5387H106.224C108.641 22.5387 110.575 21.7255 112.267 20.2151C113.838 18.5886 114.684 16.7297 114.684 14.5223C114.684 12.1987 113.838 10.2236 112.267 8.59706C110.575 6.97053 108.641 6.15727 106.224 6.15727H103.565V0.696777H106.224C110.091 0.696777 113.475 1.97476 116.134 4.64692C118.913 7.31907 120.243 10.5721 120.243 14.4061C120.243 18.1239 118.913 21.2607 116.134 23.9329C113.354 26.6051 110.091 27.9992 106.224 27.9992Z" fill="#EC1026"/>
<path d="M133.787 0.696777V27.9992H128.107V0.696777H133.787ZM136.808 0.696777H148.531V6.15727H136.808V0.696777ZM136.808 11.6178H148.531V17.0782H136.808V11.6178ZM136.808 22.5387H148.531V27.9992H136.808V22.5387Z" fill="#EC1026"/>
<path d="M175.232 27.9992L155.896 0.696777H162.785L182 27.9992H175.232ZM167.256 21.7255L162.785 27.883H155.896L163.751 16.7297L167.256 21.7255ZM174.265 11.8501L170.761 6.97053L175.111 0.696777H182L174.265 11.8501Z" fill="#EC1026"/>
</svg>
