<svg width="20" height="21" viewBox="0 0 20 21" fill="none" xmlns="http://www.w3.org/2000/svg">
<path d="M10 0.5C4.48583 0.5 0 4.98583 0 10.5C0 16.0142 4.48583 20.5 10 20.5C15.5142 20.5 20 16.0142 20 10.5C20 4.98583 15.5142 0.5 10 0.5ZM14.7208 14.3225L14.2858 14.8225C13.8267 15.2825 13.2217 15.5 12.6192 15.5C9.52417 15.5 5 11.2142 5 7.88083C5 7.27833 5.2175 6.67333 5.6775 6.21417L6.1775 5.77917C6.54917 5.4075 7.1525 5.4075 7.52417 5.77917L8.3575 6.86417C8.72917 7.23583 8.72917 7.83917 8.3575 8.21083L7.64833 9.10167C8.39917 10.9717 9.6725 12.1933 11.3983 12.8517L12.2892 12.1425C12.6608 11.7708 13.2642 11.7708 13.6358 12.1425L14.7208 12.9758C15.0925 13.3475 15.0925 13.9508 14.7208 14.3225Z" fill="#34495C"/>
</svg>
